<?xml version="1.0" standalone="no"?>
<!DOCTYPE svg PUBLIC "-//W3C//DTD SVG 20010904//EN"
 "http://www.w3.org/TR/2001/REC-SVG-20010904/DTD/svg10.dtd">
<svg version="1.0" xmlns="http://www.w3.org/2000/svg"
 width="16.000000pt" height="16.000000pt" viewBox="0 0 16.000000 16.000000"
 preserveAspectRatio="xMidYMid meet">
<metadata>
Created by potrace 1.11, written by Peter Selinger 2001-2013
</metadata>
<g transform="translate(0.000000,16.000000) scale(0.003828,-0.003828)"
fill="#000000" stroke="none">
<path d="M1899 4165 c-2 -2 -33 -6 -69 -9 -36 -3 -72 -8 -80 -10 -8 -3 -33 -7
-55 -11 -146 -21 -359 -92 -530 -175 -491 -238 -879 -678 -1053 -1196 -32 -92
-66 -223 -76 -284 -3 -19 -8 -46 -11 -60 -25 -124 -26 -607 0 -650 1 -3 6 -27
9 -55 28 -214 169 -563 313 -778 260 -385 638 -676 1063 -816 52 -17 104 -33
115 -36 11 -2 47 -11 80 -19 63 -15 104 -23 170 -31 22 -3 49 -8 60 -10 11 -2
70 -7 132 -11 l111 -6 0 216 0 216 -46 1 c-156 1 -377 45 -536 105 -642 245
-1068 853 -1070 1529 -1 232 26 401 95 587 149 404 439 730 817 917 253 126
484 177 773 174 532 -7 1038 -282 1338 -728 340 -505 378 -1143 100 -1685
-136 -265 -340 -487 -596 -650 l-60 -39 -399 399 c-220 220 -401 400 -404 400
-3 0 -5 -108 -4 -241 l0 -240 -64 2 c-400 15 -786 278 -956 651 -69 151 -99
297 -99 473 0 513 347 955 850 1083 96 25 132 29 255 30 90 1 172 -5 221 -14
291 -56 557 -233 724 -482 287 -428 243 -993 -106 -1384 l-34 -38 -399 399
c-298 299 -398 394 -399 378 0 -27 0 -401 0 -440 1 -33 -31 1 443 -474 l380
-382 68 50 c106 77 178 144 292 272 43 47 121 164 171 254 83 150 152 359 175
526 9 69 9 346 -1 422 -49 391 -281 784 -604 1024 -37 28 -72 54 -78 58 -5 5
-41 27 -80 49 -524 304 -1170 273 -1673 -79 -165 -115 -343 -314 -445 -496
-70 -124 -145 -323 -163 -430 -3 -14 -7 -32 -9 -39 -19 -54 -28 -412 -13 -518
63 -436 328 -845 703 -1086 215 -139 483 -227 734 -243 l91 -6 0 210 c0 116 3
211 6 211 5 0 666 -652 759 -749 l32 -33 89 41 c348 163 640 418 855 744 133
201 245 473 293 712 34 167 38 208 41 390 3 187 -8 310 -42 470 -2 11 -6 31
-9 45 -23 116 -98 318 -172 464 -51 101 -169 291 -203 326 -8 8 -26 31 -40 50
-15 19 -64 74 -110 122 -333 344 -742 551 -1234 623 -46 7 -431 16 -436 10z"/>
</g>
</svg>
